<mxfile host="app.diagrams.net" modified="2023-07-21T02:48:43.721Z" agent="Mozilla/5.0 (Windows NT 10.0; Win64; x64; rv:109.0) Gecko/20100101 Firefox/115.0" etag="-DgdXswkqXRi_OwDTKoJ" version="21.6.3" type="google">
  <diagram name="Page-1" id="6LzCRagLbC5EqKCzNpLI">
    <mxGraphModel grid="1" page="1" gridSize="10" guides="1" tooltips="1" connect="1" arrows="1" fold="1" pageScale="1" pageWidth="850" pageHeight="1100" math="0" shadow="0">
      <root>
        <mxCell id="0" />
        <mxCell id="1" parent="0" />
        <mxCell id="9TmVzUP1RuJLZxwf99D0-1" value="requests" style="edgeStyle=orthogonalEdgeStyle;rounded=0;orthogonalLoop=1;jettySize=auto;html=1;endArrow=block;endFill=1;" edge="1" parent="1" source="9TmVzUP1RuJLZxwf99D0-4" target="9TmVzUP1RuJLZxwf99D0-26">
          <mxGeometry relative="1" as="geometry">
            <mxPoint as="offset" />
            <Array as="points">
              <mxPoint x="400" y="200" />
              <mxPoint x="400" y="200" />
            </Array>
          </mxGeometry>
        </mxCell>
        <mxCell id="9TmVzUP1RuJLZxwf99D0-2" style="edgeStyle=orthogonalEdgeStyle;rounded=0;orthogonalLoop=1;jettySize=auto;html=1;entryX=0.5;entryY=1;entryDx=0;entryDy=0;startArrow=classicThin;startFill=1;endArrow=classicThin;endFill=1;" edge="1" parent="1" source="9TmVzUP1RuJLZxwf99D0-4" target="9TmVzUP1RuJLZxwf99D0-114">
          <mxGeometry relative="1" as="geometry">
            <Array as="points">
              <mxPoint x="400" y="70" />
              <mxPoint x="250" y="70" />
            </Array>
          </mxGeometry>
        </mxCell>
        <mxCell id="9TmVzUP1RuJLZxwf99D0-3" value="assisted-by" style="edgeLabel;html=1;align=center;verticalAlign=middle;resizable=0;points=[];" connectable="0" vertex="1" parent="9TmVzUP1RuJLZxwf99D0-2">
          <mxGeometry x="0.0432" y="3" relative="1" as="geometry">
            <mxPoint x="38" y="-3" as="offset" />
          </mxGeometry>
        </mxCell>
        <mxCell id="9TmVzUP1RuJLZxwf99D0-4" value="Customer" style="swimlane;fontStyle=0;childLayout=stackLayout;horizontal=1;startSize=26;fillColor=none;horizontalStack=0;resizeParent=1;resizeParentMax=0;resizeLast=0;collapsible=1;marginBottom=0;whiteSpace=wrap;html=1;" vertex="1" parent="1">
          <mxGeometry x="340" y="60" width="140" height="104" as="geometry">
            <mxRectangle x="350" y="350" width="90" height="30" as="alternateBounds" />
          </mxGeometry>
        </mxCell>
        <mxCell id="9TmVzUP1RuJLZxwf99D0-5" value="number" style="text;strokeColor=none;fillColor=none;align=left;verticalAlign=top;spacingLeft=4;spacingRight=4;overflow=hidden;rotatable=0;points=[[0,0.5],[1,0.5]];portConstraint=eastwest;whiteSpace=wrap;html=1;" vertex="1" parent="9TmVzUP1RuJLZxwf99D0-4">
          <mxGeometry y="26" width="140" height="26" as="geometry" />
        </mxCell>
        <mxCell id="3p_Fx420ezbqgMcpkuQv-3" value="date" style="text;strokeColor=none;fillColor=none;align=left;verticalAlign=top;spacingLeft=4;spacingRight=4;overflow=hidden;rotatable=0;points=[[0,0.5],[1,0.5]];portConstraint=eastwest;whiteSpace=wrap;html=1;" vertex="1" parent="9TmVzUP1RuJLZxwf99D0-4">
          <mxGeometry y="52" width="140" height="26" as="geometry" />
        </mxCell>
        <mxCell id="3p_Fx420ezbqgMcpkuQv-1" value="license number" style="text;strokeColor=none;fillColor=none;align=left;verticalAlign=top;spacingLeft=4;spacingRight=4;overflow=hidden;rotatable=0;points=[[0,0.5],[1,0.5]];portConstraint=eastwest;whiteSpace=wrap;html=1;" vertex="1" parent="9TmVzUP1RuJLZxwf99D0-4">
          <mxGeometry y="78" width="140" height="26" as="geometry" />
        </mxCell>
        <mxCell id="9TmVzUP1RuJLZxwf99D0-6" value="CustomerDescription" style="swimlane;fontStyle=0;childLayout=stackLayout;horizontal=1;startSize=26;fillColor=none;horizontalStack=0;resizeParent=1;resizeParentMax=0;resizeLast=0;collapsible=1;marginBottom=0;whiteSpace=wrap;html=1;" vertex="1" parent="1">
          <mxGeometry x="30" y="70" width="140" height="140" as="geometry">
            <mxRectangle x="350" y="350" width="90" height="30" as="alternateBounds" />
          </mxGeometry>
        </mxCell>
        <mxCell id="9TmVzUP1RuJLZxwf99D0-7" value="name" style="text;strokeColor=none;fillColor=none;align=left;verticalAlign=top;spacingLeft=4;spacingRight=4;overflow=hidden;rotatable=0;points=[[0,0.5],[1,0.5]];portConstraint=eastwest;whiteSpace=wrap;html=1;" vertex="1" parent="9TmVzUP1RuJLZxwf99D0-6">
          <mxGeometry y="26" width="140" height="26" as="geometry" />
        </mxCell>
        <mxCell id="9TmVzUP1RuJLZxwf99D0-8" value="address" style="text;strokeColor=none;fillColor=none;align=left;verticalAlign=top;spacingLeft=4;spacingRight=4;overflow=hidden;rotatable=0;points=[[0,0.5],[1,0.5]];portConstraint=eastwest;whiteSpace=wrap;html=1;" vertex="1" parent="9TmVzUP1RuJLZxwf99D0-6">
          <mxGeometry y="52" width="140" height="26" as="geometry" />
        </mxCell>
        <mxCell id="9TmVzUP1RuJLZxwf99D0-9" value="email" style="text;strokeColor=none;fillColor=none;align=left;verticalAlign=top;spacingLeft=4;spacingRight=4;overflow=hidden;rotatable=0;points=[[0,0.5],[1,0.5]];portConstraint=eastwest;whiteSpace=wrap;html=1;" vertex="1" parent="9TmVzUP1RuJLZxwf99D0-6">
          <mxGeometry y="78" width="140" height="32" as="geometry" />
        </mxCell>
        <mxCell id="9TmVzUP1RuJLZxwf99D0-10" value="phone number" style="text;strokeColor=none;fillColor=none;align=left;verticalAlign=top;spacingLeft=4;spacingRight=4;overflow=hidden;rotatable=0;points=[[0,0.5],[1,0.5]];portConstraint=eastwest;whiteSpace=wrap;html=1;" vertex="1" parent="9TmVzUP1RuJLZxwf99D0-6">
          <mxGeometry y="110" width="140" height="30" as="geometry" />
        </mxCell>
        <mxCell id="9TmVzUP1RuJLZxwf99D0-11" style="edgeStyle=orthogonalEdgeStyle;rounded=0;orthogonalLoop=1;jettySize=auto;html=1;entryX=0.5;entryY=0;entryDx=0;entryDy=0;endArrow=none;endFill=0;exitX=0.5;exitY=1;exitDx=0;exitDy=0;" edge="1" parent="1" source="9TmVzUP1RuJLZxwf99D0-13" target="9TmVzUP1RuJLZxwf99D0-15">
          <mxGeometry relative="1" as="geometry">
            <mxPoint x="-20.000000000000227" y="469" as="sourcePoint" />
          </mxGeometry>
        </mxCell>
        <mxCell id="9TmVzUP1RuJLZxwf99D0-12" value="describes" style="edgeLabel;html=1;align=center;verticalAlign=middle;resizable=0;points=[];" connectable="0" vertex="1" parent="9TmVzUP1RuJLZxwf99D0-11">
          <mxGeometry x="0.0857" y="2" relative="1" as="geometry">
            <mxPoint as="offset" />
          </mxGeometry>
        </mxCell>
        <mxCell id="9TmVzUP1RuJLZxwf99D0-13" value="Vehicle" style="swimlane;fontStyle=0;childLayout=stackLayout;horizontal=1;startSize=26;fillColor=none;horizontalStack=0;resizeParent=1;resizeParentMax=0;resizeLast=0;collapsible=1;marginBottom=0;whiteSpace=wrap;html=1;" vertex="1" parent="1">
          <mxGeometry x="-90" y="299" width="140" height="104" as="geometry">
            <mxRectangle x="350" y="350" width="90" height="30" as="alternateBounds" />
          </mxGeometry>
        </mxCell>
        <mxCell id="9TmVzUP1RuJLZxwf99D0-14" value="number" style="text;strokeColor=none;fillColor=none;align=left;verticalAlign=top;spacingLeft=4;spacingRight=4;overflow=hidden;rotatable=0;points=[[0,0.5],[1,0.5]];portConstraint=eastwest;whiteSpace=wrap;html=1;" vertex="1" parent="9TmVzUP1RuJLZxwf99D0-13">
          <mxGeometry y="26" width="140" height="26" as="geometry" />
        </mxCell>
        <mxCell id="3p_Fx420ezbqgMcpkuQv-15" value="color" style="text;strokeColor=none;fillColor=none;align=left;verticalAlign=top;spacingLeft=4;spacingRight=4;overflow=hidden;rotatable=0;points=[[0,0.5],[1,0.5]];portConstraint=eastwest;whiteSpace=wrap;html=1;" vertex="1" parent="9TmVzUP1RuJLZxwf99D0-13">
          <mxGeometry y="52" width="140" height="26" as="geometry" />
        </mxCell>
        <mxCell id="3p_Fx420ezbqgMcpkuQv-16" value="number of occupants" style="text;strokeColor=none;fillColor=none;align=left;verticalAlign=top;spacingLeft=4;spacingRight=4;overflow=hidden;rotatable=0;points=[[0,0.5],[1,0.5]];portConstraint=eastwest;whiteSpace=wrap;html=1;" vertex="1" parent="9TmVzUP1RuJLZxwf99D0-13">
          <mxGeometry y="78" width="140" height="26" as="geometry" />
        </mxCell>
        <mxCell id="9TmVzUP1RuJLZxwf99D0-15" value="VehicleDescription" style="swimlane;fontStyle=0;childLayout=stackLayout;horizontal=1;startSize=26;fillColor=none;horizontalStack=0;resizeParent=1;resizeParentMax=0;resizeLast=0;collapsible=1;marginBottom=0;whiteSpace=wrap;html=1;" vertex="1" parent="1">
          <mxGeometry x="-90" y="531.08" width="140" height="142" as="geometry">
            <mxRectangle x="350" y="350" width="90" height="30" as="alternateBounds" />
          </mxGeometry>
        </mxCell>
        <mxCell id="9TmVzUP1RuJLZxwf99D0-16" value="Make" style="text;strokeColor=none;fillColor=none;align=left;verticalAlign=top;spacingLeft=4;spacingRight=4;overflow=hidden;rotatable=0;points=[[0,0.5],[1,0.5]];portConstraint=eastwest;whiteSpace=wrap;html=1;" vertex="1" parent="9TmVzUP1RuJLZxwf99D0-15">
          <mxGeometry y="26" width="140" height="26" as="geometry" />
        </mxCell>
        <mxCell id="9TmVzUP1RuJLZxwf99D0-17" value="Model" style="text;strokeColor=none;fillColor=none;align=left;verticalAlign=top;spacingLeft=4;spacingRight=4;overflow=hidden;rotatable=0;points=[[0,0.5],[1,0.5]];portConstraint=eastwest;whiteSpace=wrap;html=1;" vertex="1" parent="9TmVzUP1RuJLZxwf99D0-15">
          <mxGeometry y="52" width="140" height="26" as="geometry" />
        </mxCell>
        <mxCell id="9TmVzUP1RuJLZxwf99D0-18" value="Year" style="text;strokeColor=none;fillColor=none;align=left;verticalAlign=top;spacingLeft=4;spacingRight=4;overflow=hidden;rotatable=0;points=[[0,0.5],[1,0.5]];portConstraint=eastwest;whiteSpace=wrap;html=1;" vertex="1" parent="9TmVzUP1RuJLZxwf99D0-15">
          <mxGeometry y="78" width="140" height="32" as="geometry" />
        </mxCell>
        <mxCell id="9TmVzUP1RuJLZxwf99D0-19" value="Mileage" style="text;strokeColor=none;fillColor=none;align=left;verticalAlign=top;spacingLeft=4;spacingRight=4;overflow=hidden;rotatable=0;points=[[0,0.5],[1,0.5]];portConstraint=eastwest;whiteSpace=wrap;html=1;" vertex="1" parent="9TmVzUP1RuJLZxwf99D0-15">
          <mxGeometry y="110" width="140" height="32" as="geometry" />
        </mxCell>
        <mxCell id="9TmVzUP1RuJLZxwf99D0-20" style="edgeStyle=orthogonalEdgeStyle;rounded=0;orthogonalLoop=1;jettySize=auto;html=1;entryX=0.5;entryY=0;entryDx=0;entryDy=0;endArrow=none;endFill=0;" edge="1" parent="1" source="9TmVzUP1RuJLZxwf99D0-26" target="9TmVzUP1RuJLZxwf99D0-88">
          <mxGeometry relative="1" as="geometry">
            <Array as="points">
              <mxPoint x="350" y="440" />
              <mxPoint x="170" y="440" />
            </Array>
          </mxGeometry>
        </mxCell>
        <mxCell id="9TmVzUP1RuJLZxwf99D0-21" value="generates" style="edgeLabel;html=1;align=center;verticalAlign=middle;resizable=0;points=[];" connectable="0" vertex="1" parent="9TmVzUP1RuJLZxwf99D0-20">
          <mxGeometry x="0.08" y="-1" relative="1" as="geometry">
            <mxPoint as="offset" />
          </mxGeometry>
        </mxCell>
        <mxCell id="9TmVzUP1RuJLZxwf99D0-22" style="edgeStyle=orthogonalEdgeStyle;rounded=0;orthogonalLoop=1;jettySize=auto;html=1;entryX=0.5;entryY=0;entryDx=0;entryDy=0;endArrow=classicThin;endFill=1;" edge="1" parent="1" source="9TmVzUP1RuJLZxwf99D0-26" target="9TmVzUP1RuJLZxwf99D0-30">
          <mxGeometry relative="1" as="geometry">
            <Array as="points">
              <mxPoint x="460" y="450" />
              <mxPoint x="500" y="450" />
            </Array>
          </mxGeometry>
        </mxCell>
        <mxCell id="9TmVzUP1RuJLZxwf99D0-23" value="paid-by" style="edgeLabel;html=1;align=center;verticalAlign=middle;resizable=0;points=[];" connectable="0" vertex="1" parent="9TmVzUP1RuJLZxwf99D0-22">
          <mxGeometry x="-0.01" y="-3" relative="1" as="geometry">
            <mxPoint x="25" y="10" as="offset" />
          </mxGeometry>
        </mxCell>
        <mxCell id="9TmVzUP1RuJLZxwf99D0-24" style="edgeStyle=orthogonalEdgeStyle;rounded=0;orthogonalLoop=1;jettySize=auto;html=1;entryX=0.5;entryY=0;entryDx=0;entryDy=0;endArrow=none;endFill=0;" edge="1" parent="1" source="9TmVzUP1RuJLZxwf99D0-26" target="9TmVzUP1RuJLZxwf99D0-63">
          <mxGeometry relative="1" as="geometry" />
        </mxCell>
        <mxCell id="9TmVzUP1RuJLZxwf99D0-25" value="underwritten-by" style="edgeLabel;html=1;align=center;verticalAlign=middle;resizable=0;points=[];" connectable="0" vertex="1" parent="9TmVzUP1RuJLZxwf99D0-24">
          <mxGeometry y="1" relative="1" as="geometry">
            <mxPoint x="31" y="-21" as="offset" />
          </mxGeometry>
        </mxCell>
        <mxCell id="9TmVzUP1RuJLZxwf99D0-26" value="Reservation" style="swimlane;fontStyle=0;childLayout=stackLayout;horizontal=1;startSize=26;fillColor=none;horizontalStack=0;resizeParent=1;resizeParentMax=0;resizeLast=0;collapsible=1;marginBottom=0;whiteSpace=wrap;html=1;" vertex="1" parent="1">
          <mxGeometry x="330" y="299" width="140" height="104" as="geometry">
            <mxRectangle x="350" y="350" width="90" height="30" as="alternateBounds" />
          </mxGeometry>
        </mxCell>
        <mxCell id="9TmVzUP1RuJLZxwf99D0-27" value="name" style="text;strokeColor=none;fillColor=none;align=left;verticalAlign=top;spacingLeft=4;spacingRight=4;overflow=hidden;rotatable=0;points=[[0,0.5],[1,0.5]];portConstraint=eastwest;whiteSpace=wrap;html=1;" vertex="1" parent="9TmVzUP1RuJLZxwf99D0-26">
          <mxGeometry y="26" width="140" height="26" as="geometry" />
        </mxCell>
        <mxCell id="Iz3Bo6kRq-x7VUwgKlFb-1" value="date created" style="text;strokeColor=none;fillColor=none;align=left;verticalAlign=top;spacingLeft=4;spacingRight=4;overflow=hidden;rotatable=0;points=[[0,0.5],[1,0.5]];portConstraint=eastwest;whiteSpace=wrap;html=1;" vertex="1" parent="9TmVzUP1RuJLZxwf99D0-26">
          <mxGeometry y="52" width="140" height="26" as="geometry" />
        </mxCell>
        <mxCell id="Iz3Bo6kRq-x7VUwgKlFb-2" value="date effective" style="text;strokeColor=none;fillColor=none;align=left;verticalAlign=top;spacingLeft=4;spacingRight=4;overflow=hidden;rotatable=0;points=[[0,0.5],[1,0.5]];portConstraint=eastwest;whiteSpace=wrap;html=1;" vertex="1" parent="9TmVzUP1RuJLZxwf99D0-26">
          <mxGeometry y="78" width="140" height="26" as="geometry" />
        </mxCell>
        <mxCell id="9TmVzUP1RuJLZxwf99D0-28" style="edgeStyle=orthogonalEdgeStyle;rounded=0;orthogonalLoop=1;jettySize=auto;html=1;entryX=0.5;entryY=0;entryDx=0;entryDy=0;endArrow=none;endFill=0;" edge="1" parent="1" source="9TmVzUP1RuJLZxwf99D0-30" target="9TmVzUP1RuJLZxwf99D0-101">
          <mxGeometry relative="1" as="geometry" />
        </mxCell>
        <mxCell id="9TmVzUP1RuJLZxwf99D0-29" value="processed-by" style="edgeLabel;html=1;align=center;verticalAlign=middle;resizable=0;points=[];" connectable="0" vertex="1" parent="9TmVzUP1RuJLZxwf99D0-28">
          <mxGeometry x="0.0833" y="1" relative="1" as="geometry">
            <mxPoint as="offset" />
          </mxGeometry>
        </mxCell>
        <mxCell id="9TmVzUP1RuJLZxwf99D0-30" value="Invoice" style="swimlane;fontStyle=0;childLayout=stackLayout;horizontal=1;startSize=26;fillColor=none;horizontalStack=0;resizeParent=1;resizeParentMax=0;resizeLast=0;collapsible=1;marginBottom=0;whiteSpace=wrap;html=1;" vertex="1" parent="1">
          <mxGeometry x="430" y="508" width="140" height="104" as="geometry">
            <mxRectangle x="350" y="350" width="90" height="30" as="alternateBounds" />
          </mxGeometry>
        </mxCell>
        <mxCell id="9TmVzUP1RuJLZxwf99D0-31" value="number" style="text;strokeColor=none;fillColor=none;align=left;verticalAlign=top;spacingLeft=4;spacingRight=4;overflow=hidden;rotatable=0;points=[[0,0.5],[1,0.5]];portConstraint=eastwest;whiteSpace=wrap;html=1;" vertex="1" parent="9TmVzUP1RuJLZxwf99D0-30">
          <mxGeometry y="26" width="140" height="26" as="geometry" />
        </mxCell>
        <mxCell id="9TmVzUP1RuJLZxwf99D0-32" value="amount" style="text;strokeColor=none;fillColor=none;align=left;verticalAlign=top;spacingLeft=4;spacingRight=4;overflow=hidden;rotatable=0;points=[[0,0.5],[1,0.5]];portConstraint=eastwest;whiteSpace=wrap;html=1;" vertex="1" parent="9TmVzUP1RuJLZxwf99D0-30">
          <mxGeometry y="52" width="140" height="26" as="geometry" />
        </mxCell>
        <mxCell id="9TmVzUP1RuJLZxwf99D0-33" value="date" style="text;strokeColor=none;fillColor=none;align=left;verticalAlign=top;spacingLeft=4;spacingRight=4;overflow=hidden;rotatable=0;points=[[0,0.5],[1,0.5]];portConstraint=eastwest;whiteSpace=wrap;html=1;" vertex="1" parent="9TmVzUP1RuJLZxwf99D0-30">
          <mxGeometry y="78" width="140" height="26" as="geometry" />
        </mxCell>
        <mxCell id="9TmVzUP1RuJLZxwf99D0-34" style="edgeStyle=orthogonalEdgeStyle;rounded=0;orthogonalLoop=1;jettySize=auto;html=1;endArrow=none;endFill=0;" edge="1" parent="1" source="9TmVzUP1RuJLZxwf99D0-36" target="9TmVzUP1RuJLZxwf99D0-46">
          <mxGeometry relative="1" as="geometry" />
        </mxCell>
        <mxCell id="9TmVzUP1RuJLZxwf99D0-35" value="describes" style="edgeLabel;html=1;align=center;verticalAlign=middle;resizable=0;points=[];" connectable="0" vertex="1" parent="9TmVzUP1RuJLZxwf99D0-34">
          <mxGeometry x="-0.5" y="-1" relative="1" as="geometry">
            <mxPoint x="1" as="offset" />
          </mxGeometry>
        </mxCell>
        <mxCell id="9TmVzUP1RuJLZxwf99D0-36" value="InsuranceCompany" style="swimlane;fontStyle=0;childLayout=stackLayout;horizontal=1;startSize=26;fillColor=none;horizontalStack=0;resizeParent=1;resizeParentMax=0;resizeLast=0;collapsible=1;marginBottom=0;whiteSpace=wrap;html=1;" vertex="1" parent="1">
          <mxGeometry x="270" y="743" width="140" height="104" as="geometry">
            <mxRectangle x="350" y="350" width="90" height="30" as="alternateBounds" />
          </mxGeometry>
        </mxCell>
        <mxCell id="9TmVzUP1RuJLZxwf99D0-37" value="name" style="text;strokeColor=none;fillColor=none;align=left;verticalAlign=top;spacingLeft=4;spacingRight=4;overflow=hidden;rotatable=0;points=[[0,0.5],[1,0.5]];portConstraint=eastwest;whiteSpace=wrap;html=1;" vertex="1" parent="9TmVzUP1RuJLZxwf99D0-36">
          <mxGeometry y="26" width="140" height="26" as="geometry" />
        </mxCell>
        <mxCell id="3p_Fx420ezbqgMcpkuQv-18" value="contract start" style="text;strokeColor=none;fillColor=none;align=left;verticalAlign=top;spacingLeft=4;spacingRight=4;overflow=hidden;rotatable=0;points=[[0,0.5],[1,0.5]];portConstraint=eastwest;whiteSpace=wrap;html=1;" vertex="1" parent="9TmVzUP1RuJLZxwf99D0-36">
          <mxGeometry y="52" width="140" height="26" as="geometry" />
        </mxCell>
        <mxCell id="3p_Fx420ezbqgMcpkuQv-17" value="contract end" style="text;strokeColor=none;fillColor=none;align=left;verticalAlign=top;spacingLeft=4;spacingRight=4;overflow=hidden;rotatable=0;points=[[0,0.5],[1,0.5]];portConstraint=eastwest;whiteSpace=wrap;html=1;" vertex="1" parent="9TmVzUP1RuJLZxwf99D0-36">
          <mxGeometry y="78" width="140" height="26" as="geometry" />
        </mxCell>
        <mxCell id="9TmVzUP1RuJLZxwf99D0-38" value="Employee" style="swimlane;fontStyle=0;childLayout=stackLayout;horizontal=1;startSize=26;fillColor=none;horizontalStack=0;resizeParent=1;resizeParentMax=0;resizeLast=0;collapsible=1;marginBottom=0;whiteSpace=wrap;html=1;" vertex="1" parent="1">
          <mxGeometry x="480" y="-120" width="140" height="110" as="geometry">
            <mxRectangle x="350" y="350" width="90" height="30" as="alternateBounds" />
          </mxGeometry>
        </mxCell>
        <mxCell id="9TmVzUP1RuJLZxwf99D0-39" value="type" style="text;strokeColor=none;fillColor=none;align=left;verticalAlign=top;spacingLeft=4;spacingRight=4;overflow=hidden;rotatable=0;points=[[0,0.5],[1,0.5]];portConstraint=eastwest;whiteSpace=wrap;html=1;" vertex="1" parent="9TmVzUP1RuJLZxwf99D0-38">
          <mxGeometry y="26" width="140" height="26" as="geometry" />
        </mxCell>
        <mxCell id="9TmVzUP1RuJLZxwf99D0-40" value="email" style="text;strokeColor=none;fillColor=none;align=left;verticalAlign=top;spacingLeft=4;spacingRight=4;overflow=hidden;rotatable=0;points=[[0,0.5],[1,0.5]];portConstraint=eastwest;whiteSpace=wrap;html=1;" vertex="1" parent="9TmVzUP1RuJLZxwf99D0-38">
          <mxGeometry y="52" width="140" height="26" as="geometry" />
        </mxCell>
        <mxCell id="9TmVzUP1RuJLZxwf99D0-41" value="phone number" style="text;strokeColor=none;fillColor=none;align=left;verticalAlign=top;spacingLeft=4;spacingRight=4;overflow=hidden;rotatable=0;points=[[0,0.5],[1,0.5]];portConstraint=eastwest;whiteSpace=wrap;html=1;" vertex="1" parent="9TmVzUP1RuJLZxwf99D0-38">
          <mxGeometry y="78" width="140" height="32" as="geometry" />
        </mxCell>
        <mxCell id="9TmVzUP1RuJLZxwf99D0-42" style="edgeStyle=orthogonalEdgeStyle;rounded=0;orthogonalLoop=1;jettySize=auto;html=1;entryX=0.5;entryY=0;entryDx=0;entryDy=0;endArrow=none;endFill=0;" edge="1" parent="1" source="9TmVzUP1RuJLZxwf99D0-44" target="9TmVzUP1RuJLZxwf99D0-67">
          <mxGeometry relative="1" as="geometry" />
        </mxCell>
        <mxCell id="9TmVzUP1RuJLZxwf99D0-43" value="describes" style="edgeLabel;html=1;align=center;verticalAlign=middle;resizable=0;points=[];" connectable="0" vertex="1" parent="9TmVzUP1RuJLZxwf99D0-42">
          <mxGeometry x="0.0444" y="1" relative="1" as="geometry">
            <mxPoint as="offset" />
          </mxGeometry>
        </mxCell>
        <mxCell id="9TmVzUP1RuJLZxwf99D0-44" value="Contract" style="swimlane;fontStyle=0;childLayout=stackLayout;horizontal=1;startSize=26;fillColor=none;horizontalStack=0;resizeParent=1;resizeParentMax=0;resizeLast=0;collapsible=1;marginBottom=0;whiteSpace=wrap;html=1;" vertex="1" parent="1">
          <mxGeometry x="630" y="299" width="140" height="104" as="geometry">
            <mxRectangle x="350" y="350" width="90" height="30" as="alternateBounds" />
          </mxGeometry>
        </mxCell>
        <mxCell id="9TmVzUP1RuJLZxwf99D0-45" value="contractId" style="text;strokeColor=none;fillColor=none;align=left;verticalAlign=top;spacingLeft=4;spacingRight=4;overflow=hidden;rotatable=0;points=[[0,0.5],[1,0.5]];portConstraint=eastwest;whiteSpace=wrap;html=1;" vertex="1" parent="9TmVzUP1RuJLZxwf99D0-44">
          <mxGeometry y="26" width="140" height="26" as="geometry" />
        </mxCell>
        <mxCell id="3p_Fx420ezbqgMcpkuQv-11" value="contract name" style="text;strokeColor=none;fillColor=none;align=left;verticalAlign=top;spacingLeft=4;spacingRight=4;overflow=hidden;rotatable=0;points=[[0,0.5],[1,0.5]];portConstraint=eastwest;whiteSpace=wrap;html=1;" vertex="1" parent="9TmVzUP1RuJLZxwf99D0-44">
          <mxGeometry y="52" width="140" height="26" as="geometry" />
        </mxCell>
        <mxCell id="3p_Fx420ezbqgMcpkuQv-14" value="customer name" style="text;strokeColor=none;fillColor=none;align=left;verticalAlign=top;spacingLeft=4;spacingRight=4;overflow=hidden;rotatable=0;points=[[0,0.5],[1,0.5]];portConstraint=eastwest;whiteSpace=wrap;html=1;" vertex="1" parent="9TmVzUP1RuJLZxwf99D0-44">
          <mxGeometry y="78" width="140" height="26" as="geometry" />
        </mxCell>
        <mxCell id="9TmVzUP1RuJLZxwf99D0-46" value="Vendor Description" style="swimlane;fontStyle=0;childLayout=stackLayout;horizontal=1;startSize=26;fillColor=none;horizontalStack=0;resizeParent=1;resizeParentMax=0;resizeLast=0;collapsible=1;marginBottom=0;whiteSpace=wrap;html=1;" vertex="1" parent="1">
          <mxGeometry x="270" y="990" width="140" height="142" as="geometry">
            <mxRectangle x="350" y="350" width="90" height="30" as="alternateBounds" />
          </mxGeometry>
        </mxCell>
        <mxCell id="9TmVzUP1RuJLZxwf99D0-47" value="type" style="text;strokeColor=none;fillColor=none;align=left;verticalAlign=top;spacingLeft=4;spacingRight=4;overflow=hidden;rotatable=0;points=[[0,0.5],[1,0.5]];portConstraint=eastwest;whiteSpace=wrap;html=1;" vertex="1" parent="9TmVzUP1RuJLZxwf99D0-46">
          <mxGeometry y="26" width="140" height="26" as="geometry" />
        </mxCell>
        <mxCell id="9TmVzUP1RuJLZxwf99D0-48" value="vendorId" style="text;strokeColor=none;fillColor=none;align=left;verticalAlign=top;spacingLeft=4;spacingRight=4;overflow=hidden;rotatable=0;points=[[0,0.5],[1,0.5]];portConstraint=eastwest;whiteSpace=wrap;html=1;" vertex="1" parent="9TmVzUP1RuJLZxwf99D0-46">
          <mxGeometry y="52" width="140" height="26" as="geometry" />
        </mxCell>
        <mxCell id="9TmVzUP1RuJLZxwf99D0-49" value="point of contact" style="text;strokeColor=none;fillColor=none;align=left;verticalAlign=top;spacingLeft=4;spacingRight=4;overflow=hidden;rotatable=0;points=[[0,0.5],[1,0.5]];portConstraint=eastwest;whiteSpace=wrap;html=1;" vertex="1" parent="9TmVzUP1RuJLZxwf99D0-46">
          <mxGeometry y="78" width="140" height="32" as="geometry" />
        </mxCell>
        <mxCell id="9TmVzUP1RuJLZxwf99D0-50" value="address" style="text;strokeColor=none;fillColor=none;align=left;verticalAlign=top;spacingLeft=4;spacingRight=4;overflow=hidden;rotatable=0;points=[[0,0.5],[1,0.5]];portConstraint=eastwest;whiteSpace=wrap;html=1;" vertex="1" parent="9TmVzUP1RuJLZxwf99D0-46">
          <mxGeometry y="110" width="140" height="32" as="geometry" />
        </mxCell>
        <mxCell id="9TmVzUP1RuJLZxwf99D0-51" style="edgeStyle=orthogonalEdgeStyle;rounded=0;orthogonalLoop=1;jettySize=auto;html=1;entryX=0.5;entryY=0;entryDx=0;entryDy=0;endArrow=classicThin;endFill=1;" edge="1" parent="1" source="9TmVzUP1RuJLZxwf99D0-55" target="9TmVzUP1RuJLZxwf99D0-44">
          <mxGeometry relative="1" as="geometry" />
        </mxCell>
        <mxCell id="9TmVzUP1RuJLZxwf99D0-52" value="reviews" style="edgeLabel;html=1;align=center;verticalAlign=middle;resizable=0;points=[];" connectable="0" vertex="1" parent="9TmVzUP1RuJLZxwf99D0-51">
          <mxGeometry x="-0.2696" y="-1" relative="1" as="geometry">
            <mxPoint x="1" y="13" as="offset" />
          </mxGeometry>
        </mxCell>
        <mxCell id="9TmVzUP1RuJLZxwf99D0-53" style="edgeStyle=orthogonalEdgeStyle;rounded=0;orthogonalLoop=1;jettySize=auto;html=1;entryX=0.5;entryY=1;entryDx=0;entryDy=0;startArrow=none;startFill=0;endArrow=block;endFill=0;endSize=12;" edge="1" parent="1" source="9TmVzUP1RuJLZxwf99D0-55" target="9TmVzUP1RuJLZxwf99D0-38">
          <mxGeometry relative="1" as="geometry">
            <Array as="points">
              <mxPoint x="550" y="100" />
            </Array>
          </mxGeometry>
        </mxCell>
        <mxCell id="9TmVzUP1RuJLZxwf99D0-54" value="inherits-from" style="edgeLabel;html=1;align=center;verticalAlign=middle;resizable=0;points=[];rotation=0;" connectable="0" vertex="1" parent="9TmVzUP1RuJLZxwf99D0-53">
          <mxGeometry x="0.73" y="2" relative="1" as="geometry">
            <mxPoint x="2" y="54" as="offset" />
          </mxGeometry>
        </mxCell>
        <mxCell id="9TmVzUP1RuJLZxwf99D0-55" value="Lawyer" style="swimlane;fontStyle=0;childLayout=stackLayout;horizontal=1;startSize=26;fillColor=none;horizontalStack=0;resizeParent=1;resizeParentMax=0;resizeLast=0;collapsible=1;marginBottom=0;whiteSpace=wrap;html=1;" vertex="1" parent="1">
          <mxGeometry x="630" y="60" width="140" height="104" as="geometry">
            <mxRectangle x="350" y="350" width="90" height="30" as="alternateBounds" />
          </mxGeometry>
        </mxCell>
        <mxCell id="9TmVzUP1RuJLZxwf99D0-56" value="name" style="text;strokeColor=none;fillColor=none;align=left;verticalAlign=top;spacingLeft=4;spacingRight=4;overflow=hidden;rotatable=0;points=[[0,0.5],[1,0.5]];portConstraint=eastwest;whiteSpace=wrap;html=1;" vertex="1" parent="9TmVzUP1RuJLZxwf99D0-55">
          <mxGeometry y="26" width="140" height="26" as="geometry" />
        </mxCell>
        <mxCell id="3p_Fx420ezbqgMcpkuQv-6" value="title" style="text;strokeColor=none;fillColor=none;align=left;verticalAlign=top;spacingLeft=4;spacingRight=4;overflow=hidden;rotatable=0;points=[[0,0.5],[1,0.5]];portConstraint=eastwest;whiteSpace=wrap;html=1;" vertex="1" parent="9TmVzUP1RuJLZxwf99D0-55">
          <mxGeometry y="52" width="140" height="26" as="geometry" />
        </mxCell>
        <mxCell id="3p_Fx420ezbqgMcpkuQv-8" value="location" style="text;strokeColor=none;fillColor=none;align=left;verticalAlign=top;spacingLeft=4;spacingRight=4;overflow=hidden;rotatable=0;points=[[0,0.5],[1,0.5]];portConstraint=eastwest;whiteSpace=wrap;html=1;" vertex="1" parent="9TmVzUP1RuJLZxwf99D0-55">
          <mxGeometry y="78" width="140" height="26" as="geometry" />
        </mxCell>
        <mxCell id="9TmVzUP1RuJLZxwf99D0-57" style="edgeStyle=orthogonalEdgeStyle;rounded=0;orthogonalLoop=1;jettySize=auto;html=1;entryX=0.5;entryY=0;entryDx=0;entryDy=0;endArrow=none;endFill=0;" edge="1" parent="1" source="9TmVzUP1RuJLZxwf99D0-59" target="9TmVzUP1RuJLZxwf99D0-46">
          <mxGeometry relative="1" as="geometry">
            <Array as="points">
              <mxPoint x="170" y="930" />
              <mxPoint x="340" y="930" />
            </Array>
          </mxGeometry>
        </mxCell>
        <mxCell id="9TmVzUP1RuJLZxwf99D0-58" value="describes" style="edgeLabel;html=1;align=center;verticalAlign=middle;resizable=0;points=[];" connectable="0" vertex="1" parent="9TmVzUP1RuJLZxwf99D0-57">
          <mxGeometry x="-0.3649" relative="1" as="geometry">
            <mxPoint x="-9" y="-50" as="offset" />
          </mxGeometry>
        </mxCell>
        <mxCell id="9TmVzUP1RuJLZxwf99D0-59" value="CreditCompany" style="swimlane;fontStyle=0;childLayout=stackLayout;horizontal=1;startSize=26;fillColor=none;horizontalStack=0;resizeParent=1;resizeParentMax=0;resizeLast=0;collapsible=1;marginBottom=0;whiteSpace=wrap;html=1;" vertex="1" parent="1">
          <mxGeometry x="100" y="691" width="140" height="104" as="geometry">
            <mxRectangle x="350" y="350" width="90" height="30" as="alternateBounds" />
          </mxGeometry>
        </mxCell>
        <mxCell id="9TmVzUP1RuJLZxwf99D0-60" value="name" style="text;strokeColor=none;fillColor=none;align=left;verticalAlign=top;spacingLeft=4;spacingRight=4;overflow=hidden;rotatable=0;points=[[0,0.5],[1,0.5]];portConstraint=eastwest;whiteSpace=wrap;html=1;" vertex="1" parent="9TmVzUP1RuJLZxwf99D0-59">
          <mxGeometry y="26" width="140" height="26" as="geometry" />
        </mxCell>
        <mxCell id="3p_Fx420ezbqgMcpkuQv-10" value="contract start" style="text;strokeColor=none;fillColor=none;align=left;verticalAlign=top;spacingLeft=4;spacingRight=4;overflow=hidden;rotatable=0;points=[[0,0.5],[1,0.5]];portConstraint=eastwest;whiteSpace=wrap;html=1;" vertex="1" parent="9TmVzUP1RuJLZxwf99D0-59">
          <mxGeometry y="52" width="140" height="26" as="geometry" />
        </mxCell>
        <mxCell id="3p_Fx420ezbqgMcpkuQv-9" value="contract end" style="text;strokeColor=none;fillColor=none;align=left;verticalAlign=top;spacingLeft=4;spacingRight=4;overflow=hidden;rotatable=0;points=[[0,0.5],[1,0.5]];portConstraint=eastwest;whiteSpace=wrap;html=1;" vertex="1" parent="9TmVzUP1RuJLZxwf99D0-59">
          <mxGeometry y="78" width="140" height="26" as="geometry" />
        </mxCell>
        <mxCell id="9TmVzUP1RuJLZxwf99D0-61" style="edgeStyle=orthogonalEdgeStyle;rounded=0;orthogonalLoop=1;jettySize=auto;html=1;endArrow=none;endFill=0;" edge="1" parent="1" source="9TmVzUP1RuJLZxwf99D0-63" target="9TmVzUP1RuJLZxwf99D0-36">
          <mxGeometry relative="1" as="geometry" />
        </mxCell>
        <mxCell id="9TmVzUP1RuJLZxwf99D0-62" value="reviewed-by" style="edgeLabel;html=1;align=center;verticalAlign=middle;resizable=0;points=[];" connectable="0" vertex="1" parent="9TmVzUP1RuJLZxwf99D0-61">
          <mxGeometry y="2" relative="1" as="geometry">
            <mxPoint as="offset" />
          </mxGeometry>
        </mxCell>
        <mxCell id="9TmVzUP1RuJLZxwf99D0-63" value="InsurancePolicy" style="swimlane;fontStyle=0;childLayout=stackLayout;horizontal=1;startSize=26;fillColor=none;horizontalStack=0;resizeParent=1;resizeParentMax=0;resizeLast=0;collapsible=1;marginBottom=0;whiteSpace=wrap;html=1;" vertex="1" parent="1">
          <mxGeometry x="270" y="530" width="140" height="110" as="geometry">
            <mxRectangle x="350" y="350" width="90" height="30" as="alternateBounds" />
          </mxGeometry>
        </mxCell>
        <mxCell id="9TmVzUP1RuJLZxwf99D0-64" value="number" style="text;strokeColor=none;fillColor=none;align=left;verticalAlign=top;spacingLeft=4;spacingRight=4;overflow=hidden;rotatable=0;points=[[0,0.5],[1,0.5]];portConstraint=eastwest;whiteSpace=wrap;html=1;" vertex="1" parent="9TmVzUP1RuJLZxwf99D0-63">
          <mxGeometry y="26" width="140" height="26" as="geometry" />
        </mxCell>
        <mxCell id="9TmVzUP1RuJLZxwf99D0-65" value="coverage" style="text;strokeColor=none;fillColor=none;align=left;verticalAlign=top;spacingLeft=4;spacingRight=4;overflow=hidden;rotatable=0;points=[[0,0.5],[1,0.5]];portConstraint=eastwest;whiteSpace=wrap;html=1;" vertex="1" parent="9TmVzUP1RuJLZxwf99D0-63">
          <mxGeometry y="52" width="140" height="26" as="geometry" />
        </mxCell>
        <mxCell id="9TmVzUP1RuJLZxwf99D0-66" value="date signed" style="text;strokeColor=none;fillColor=none;align=left;verticalAlign=top;spacingLeft=4;spacingRight=4;overflow=hidden;rotatable=0;points=[[0,0.5],[1,0.5]];portConstraint=eastwest;whiteSpace=wrap;html=1;" vertex="1" parent="9TmVzUP1RuJLZxwf99D0-63">
          <mxGeometry y="78" width="140" height="32" as="geometry" />
        </mxCell>
        <mxCell id="9TmVzUP1RuJLZxwf99D0-67" value="ContractDetails" style="swimlane;fontStyle=0;childLayout=stackLayout;horizontal=1;startSize=26;fillColor=none;horizontalStack=0;resizeParent=1;resizeParentMax=0;resizeLast=0;collapsible=1;marginBottom=0;whiteSpace=wrap;html=1;" vertex="1" parent="1">
          <mxGeometry x="630" y="560" width="140" height="142" as="geometry">
            <mxRectangle x="350" y="350" width="90" height="30" as="alternateBounds" />
          </mxGeometry>
        </mxCell>
        <mxCell id="9TmVzUP1RuJLZxwf99D0-68" value="type" style="text;strokeColor=none;fillColor=none;align=left;verticalAlign=top;spacingLeft=4;spacingRight=4;overflow=hidden;rotatable=0;points=[[0,0.5],[1,0.5]];portConstraint=eastwest;whiteSpace=wrap;html=1;" vertex="1" parent="9TmVzUP1RuJLZxwf99D0-67">
          <mxGeometry y="26" width="140" height="26" as="geometry" />
        </mxCell>
        <mxCell id="9TmVzUP1RuJLZxwf99D0-69" value="date effective" style="text;strokeColor=none;fillColor=none;align=left;verticalAlign=top;spacingLeft=4;spacingRight=4;overflow=hidden;rotatable=0;points=[[0,0.5],[1,0.5]];portConstraint=eastwest;whiteSpace=wrap;html=1;" vertex="1" parent="9TmVzUP1RuJLZxwf99D0-67">
          <mxGeometry y="52" width="140" height="26" as="geometry" />
        </mxCell>
        <mxCell id="9TmVzUP1RuJLZxwf99D0-70" value="date expired" style="text;strokeColor=none;fillColor=none;align=left;verticalAlign=top;spacingLeft=4;spacingRight=4;overflow=hidden;rotatable=0;points=[[0,0.5],[1,0.5]];portConstraint=eastwest;whiteSpace=wrap;html=1;" vertex="1" parent="9TmVzUP1RuJLZxwf99D0-67">
          <mxGeometry y="78" width="140" height="32" as="geometry" />
        </mxCell>
        <mxCell id="9TmVzUP1RuJLZxwf99D0-71" value="signatory" style="text;strokeColor=none;fillColor=none;align=left;verticalAlign=top;spacingLeft=4;spacingRight=4;overflow=hidden;rotatable=0;points=[[0,0.5],[1,0.5]];portConstraint=eastwest;whiteSpace=wrap;html=1;" vertex="1" parent="9TmVzUP1RuJLZxwf99D0-67">
          <mxGeometry y="110" width="140" height="32" as="geometry" />
        </mxCell>
        <mxCell id="9TmVzUP1RuJLZxwf99D0-72" style="edgeStyle=orthogonalEdgeStyle;rounded=0;orthogonalLoop=1;jettySize=auto;html=1;entryX=1;entryY=0.5;entryDx=0;entryDy=0;endArrow=none;endFill=0;exitX=-0.006;exitY=0.9;exitDx=0;exitDy=0;exitPerimeter=0;startArrow=none;startFill=0;" edge="1" parent="1" source="3p_Fx420ezbqgMcpkuQv-3" target="9TmVzUP1RuJLZxwf99D0-8">
          <mxGeometry relative="1" as="geometry">
            <mxPoint x="330" y="135" as="sourcePoint" />
          </mxGeometry>
        </mxCell>
        <mxCell id="9TmVzUP1RuJLZxwf99D0-73" value="describes" style="edgeLabel;html=1;align=center;verticalAlign=middle;resizable=0;points=[];" connectable="0" vertex="1" parent="9TmVzUP1RuJLZxwf99D0-72">
          <mxGeometry x="0.0875" y="1" relative="1" as="geometry">
            <mxPoint x="18" y="-1" as="offset" />
          </mxGeometry>
        </mxCell>
        <mxCell id="9TmVzUP1RuJLZxwf99D0-74" value="1" style="text;html=1;align=center;verticalAlign=middle;resizable=0;points=[];autosize=1;strokeColor=none;fillColor=none;" vertex="1" parent="1">
          <mxGeometry x="170" y="108" width="30" height="30" as="geometry" />
        </mxCell>
        <mxCell id="9TmVzUP1RuJLZxwf99D0-75" value="1" style="text;html=1;align=center;verticalAlign=middle;resizable=0;points=[];autosize=1;strokeColor=none;fillColor=none;" vertex="1" parent="1">
          <mxGeometry x="315" y="110" width="30" height="30" as="geometry" />
        </mxCell>
        <mxCell id="9TmVzUP1RuJLZxwf99D0-76" value="*" style="text;html=1;align=center;verticalAlign=middle;resizable=0;points=[];autosize=1;strokeColor=none;fillColor=none;" vertex="1" parent="1">
          <mxGeometry x="400" y="164" width="30" height="30" as="geometry" />
        </mxCell>
        <mxCell id="9TmVzUP1RuJLZxwf99D0-77" value="1...*" style="text;html=1;align=center;verticalAlign=middle;resizable=0;points=[];autosize=1;strokeColor=none;fillColor=none;" vertex="1" parent="1">
          <mxGeometry x="400" y="269" width="40" height="30" as="geometry" />
        </mxCell>
        <mxCell id="9TmVzUP1RuJLZxwf99D0-78" value="contains" style="edgeStyle=orthogonalEdgeStyle;rounded=0;orthogonalLoop=1;jettySize=auto;html=1;entryX=1;entryY=0.5;entryDx=0;entryDy=0;endArrow=classicThin;endFill=1;startArrow=classicThin;startFill=1;" edge="1" parent="1">
          <mxGeometry relative="1" as="geometry">
            <mxPoint x="330" y="325" as="sourcePoint" />
            <mxPoint x="50" y="325" as="targetPoint" />
          </mxGeometry>
        </mxCell>
        <mxCell id="9TmVzUP1RuJLZxwf99D0-79" value="1" style="text;html=1;align=center;verticalAlign=middle;resizable=0;points=[];autosize=1;strokeColor=none;fillColor=none;" vertex="1" parent="1">
          <mxGeometry x="50" y="300" width="30" height="30" as="geometry" />
        </mxCell>
        <mxCell id="9TmVzUP1RuJLZxwf99D0-80" value="*" style="text;html=1;align=center;verticalAlign=middle;resizable=0;points=[];autosize=1;strokeColor=none;fillColor=none;" vertex="1" parent="1">
          <mxGeometry x="300" y="300" width="30" height="30" as="geometry" />
        </mxCell>
        <mxCell id="9TmVzUP1RuJLZxwf99D0-81" value="1" style="text;html=1;align=center;verticalAlign=middle;resizable=0;points=[];autosize=1;strokeColor=none;fillColor=none;" vertex="1" parent="1">
          <mxGeometry x="-20" y="501.08" width="30" height="30" as="geometry" />
        </mxCell>
        <mxCell id="9TmVzUP1RuJLZxwf99D0-82" value="1" style="text;html=1;align=center;verticalAlign=middle;resizable=0;points=[];autosize=1;strokeColor=none;fillColor=none;" vertex="1" parent="1">
          <mxGeometry x="-20" y="403" width="30" height="30" as="geometry" />
        </mxCell>
        <mxCell id="9TmVzUP1RuJLZxwf99D0-83" value="has" style="edgeStyle=orthogonalEdgeStyle;rounded=0;orthogonalLoop=1;jettySize=auto;html=1;entryX=1;entryY=0.5;entryDx=0;entryDy=0;endArrow=none;endFill=0;startArrow=classicThin;startFill=1;" edge="1" parent="1">
          <mxGeometry relative="1" as="geometry">
            <mxPoint x="630" y="329" as="sourcePoint" />
            <mxPoint x="470" y="329" as="targetPoint" />
          </mxGeometry>
        </mxCell>
        <mxCell id="9TmVzUP1RuJLZxwf99D0-84" value="1" style="text;html=1;align=center;verticalAlign=middle;resizable=0;points=[];autosize=1;strokeColor=none;fillColor=none;" vertex="1" parent="1">
          <mxGeometry x="600" y="300" width="30" height="30" as="geometry" />
        </mxCell>
        <mxCell id="9TmVzUP1RuJLZxwf99D0-85" value="1...*" style="text;html=1;align=center;verticalAlign=middle;resizable=0;points=[];autosize=1;strokeColor=none;fillColor=none;" vertex="1" parent="1">
          <mxGeometry x="470" y="300" width="40" height="30" as="geometry" />
        </mxCell>
        <mxCell id="9TmVzUP1RuJLZxwf99D0-86" style="edgeStyle=orthogonalEdgeStyle;rounded=0;orthogonalLoop=1;jettySize=auto;html=1;endArrow=none;endFill=0;" edge="1" parent="1" source="9TmVzUP1RuJLZxwf99D0-88" target="9TmVzUP1RuJLZxwf99D0-59">
          <mxGeometry relative="1" as="geometry" />
        </mxCell>
        <mxCell id="9TmVzUP1RuJLZxwf99D0-87" value="generated-by" style="edgeLabel;html=1;align=center;verticalAlign=middle;resizable=0;points=[];" connectable="0" vertex="1" parent="9TmVzUP1RuJLZxwf99D0-86">
          <mxGeometry x="0.1111" y="-3" relative="1" as="geometry">
            <mxPoint x="3" as="offset" />
          </mxGeometry>
        </mxCell>
        <mxCell id="9TmVzUP1RuJLZxwf99D0-88" value="CreditReport" style="swimlane;fontStyle=0;childLayout=stackLayout;horizontal=1;startSize=26;fillColor=none;horizontalStack=0;resizeParent=1;resizeParentMax=0;resizeLast=0;collapsible=1;marginBottom=0;whiteSpace=wrap;html=1;" vertex="1" parent="1">
          <mxGeometry x="100" y="461" width="140" height="110" as="geometry">
            <mxRectangle x="350" y="350" width="90" height="30" as="alternateBounds" />
          </mxGeometry>
        </mxCell>
        <mxCell id="9TmVzUP1RuJLZxwf99D0-89" value="number" style="text;strokeColor=none;fillColor=none;align=left;verticalAlign=top;spacingLeft=4;spacingRight=4;overflow=hidden;rotatable=0;points=[[0,0.5],[1,0.5]];portConstraint=eastwest;whiteSpace=wrap;html=1;" vertex="1" parent="9TmVzUP1RuJLZxwf99D0-88">
          <mxGeometry y="26" width="140" height="26" as="geometry" />
        </mxCell>
        <mxCell id="9TmVzUP1RuJLZxwf99D0-90" value="score" style="text;strokeColor=none;fillColor=none;align=left;verticalAlign=top;spacingLeft=4;spacingRight=4;overflow=hidden;rotatable=0;points=[[0,0.5],[1,0.5]];portConstraint=eastwest;whiteSpace=wrap;html=1;" vertex="1" parent="9TmVzUP1RuJLZxwf99D0-88">
          <mxGeometry y="52" width="140" height="26" as="geometry" />
        </mxCell>
        <mxCell id="9TmVzUP1RuJLZxwf99D0-91" value="history" style="text;strokeColor=none;fillColor=none;align=left;verticalAlign=top;spacingLeft=4;spacingRight=4;overflow=hidden;rotatable=0;points=[[0,0.5],[1,0.5]];portConstraint=eastwest;whiteSpace=wrap;html=1;" vertex="1" parent="9TmVzUP1RuJLZxwf99D0-88">
          <mxGeometry y="78" width="140" height="32" as="geometry" />
        </mxCell>
        <mxCell id="9TmVzUP1RuJLZxwf99D0-92" value="1" style="text;html=1;align=center;verticalAlign=middle;resizable=0;points=[];autosize=1;strokeColor=none;fillColor=none;" vertex="1" parent="1">
          <mxGeometry x="345" y="401" width="30" height="30" as="geometry" />
        </mxCell>
        <mxCell id="9TmVzUP1RuJLZxwf99D0-93" value="1" style="text;html=1;align=center;verticalAlign=middle;resizable=0;points=[];autosize=1;strokeColor=none;fillColor=none;" vertex="1" parent="1">
          <mxGeometry x="140" y="433" width="30" height="30" as="geometry" />
        </mxCell>
        <mxCell id="9TmVzUP1RuJLZxwf99D0-94" value="1" style="text;html=1;align=center;verticalAlign=middle;resizable=0;points=[];autosize=1;strokeColor=none;fillColor=none;" vertex="1" parent="1">
          <mxGeometry x="700" y="270" width="30" height="30" as="geometry" />
        </mxCell>
        <mxCell id="9TmVzUP1RuJLZxwf99D0-95" value="1" style="text;html=1;align=center;verticalAlign=middle;resizable=0;points=[];autosize=1;strokeColor=none;fillColor=none;" vertex="1" parent="1">
          <mxGeometry x="170" y="571" width="30" height="30" as="geometry" />
        </mxCell>
        <mxCell id="9TmVzUP1RuJLZxwf99D0-96" value="1...*" style="text;html=1;align=center;verticalAlign=middle;resizable=0;points=[];autosize=1;strokeColor=none;fillColor=none;" vertex="1" parent="1">
          <mxGeometry x="170" y="661" width="40" height="30" as="geometry" />
        </mxCell>
        <mxCell id="9TmVzUP1RuJLZxwf99D0-97" value="1" style="text;html=1;align=center;verticalAlign=middle;resizable=0;points=[];autosize=1;strokeColor=none;fillColor=none;" vertex="1" parent="1">
          <mxGeometry x="460" y="403" width="30" height="30" as="geometry" />
        </mxCell>
        <mxCell id="9TmVzUP1RuJLZxwf99D0-98" value="1" style="text;html=1;align=center;verticalAlign=middle;resizable=0;points=[];autosize=1;strokeColor=none;fillColor=none;" vertex="1" parent="1">
          <mxGeometry x="500" y="480" width="30" height="30" as="geometry" />
        </mxCell>
        <mxCell id="9TmVzUP1RuJLZxwf99D0-99" style="edgeStyle=orthogonalEdgeStyle;rounded=0;orthogonalLoop=1;jettySize=auto;html=1;entryX=0.5;entryY=0;entryDx=0;entryDy=0;endArrow=none;endFill=0;" edge="1" parent="1" source="9TmVzUP1RuJLZxwf99D0-101" target="9TmVzUP1RuJLZxwf99D0-46">
          <mxGeometry relative="1" as="geometry">
            <Array as="points">
              <mxPoint x="500" y="930" />
              <mxPoint x="340" y="930" />
            </Array>
          </mxGeometry>
        </mxCell>
        <mxCell id="9TmVzUP1RuJLZxwf99D0-100" value="describes" style="edgeLabel;html=1;align=center;verticalAlign=middle;resizable=0;points=[];" connectable="0" vertex="1" parent="9TmVzUP1RuJLZxwf99D0-99">
          <mxGeometry x="-0.3765" y="-1" relative="1" as="geometry">
            <mxPoint x="31" y="-29" as="offset" />
          </mxGeometry>
        </mxCell>
        <mxCell id="9TmVzUP1RuJLZxwf99D0-101" value="PaymentCompany" style="swimlane;fontStyle=0;childLayout=stackLayout;horizontal=1;startSize=26;fillColor=none;horizontalStack=0;resizeParent=1;resizeParentMax=0;resizeLast=0;collapsible=1;marginBottom=0;whiteSpace=wrap;html=1;" vertex="1" parent="1">
          <mxGeometry x="430" y="730" width="140" height="104" as="geometry">
            <mxRectangle x="350" y="350" width="90" height="30" as="alternateBounds" />
          </mxGeometry>
        </mxCell>
        <mxCell id="9TmVzUP1RuJLZxwf99D0-102" value="name" style="text;strokeColor=none;fillColor=none;align=left;verticalAlign=top;spacingLeft=4;spacingRight=4;overflow=hidden;rotatable=0;points=[[0,0.5],[1,0.5]];portConstraint=eastwest;whiteSpace=wrap;html=1;" vertex="1" parent="9TmVzUP1RuJLZxwf99D0-101">
          <mxGeometry y="26" width="140" height="26" as="geometry" />
        </mxCell>
        <mxCell id="3p_Fx420ezbqgMcpkuQv-19" value="contract start" style="text;strokeColor=none;fillColor=none;align=left;verticalAlign=top;spacingLeft=4;spacingRight=4;overflow=hidden;rotatable=0;points=[[0,0.5],[1,0.5]];portConstraint=eastwest;whiteSpace=wrap;html=1;" vertex="1" parent="9TmVzUP1RuJLZxwf99D0-101">
          <mxGeometry y="52" width="140" height="26" as="geometry" />
        </mxCell>
        <mxCell id="3p_Fx420ezbqgMcpkuQv-20" value="contract end" style="text;strokeColor=none;fillColor=none;align=left;verticalAlign=top;spacingLeft=4;spacingRight=4;overflow=hidden;rotatable=0;points=[[0,0.5],[1,0.5]];portConstraint=eastwest;whiteSpace=wrap;html=1;" vertex="1" parent="9TmVzUP1RuJLZxwf99D0-101">
          <mxGeometry y="78" width="140" height="26" as="geometry" />
        </mxCell>
        <mxCell id="9TmVzUP1RuJLZxwf99D0-103" value="1" style="text;html=1;align=center;verticalAlign=middle;resizable=0;points=[];autosize=1;strokeColor=none;fillColor=none;" vertex="1" parent="1">
          <mxGeometry x="500" y="612" width="30" height="30" as="geometry" />
        </mxCell>
        <mxCell id="9TmVzUP1RuJLZxwf99D0-104" value="1...*" style="text;html=1;align=center;verticalAlign=middle;resizable=0;points=[];autosize=1;strokeColor=none;fillColor=none;" vertex="1" parent="1">
          <mxGeometry x="500" y="700" width="40" height="30" as="geometry" />
        </mxCell>
        <mxCell id="9TmVzUP1RuJLZxwf99D0-105" value="1...*" style="text;html=1;align=center;verticalAlign=middle;resizable=0;points=[];autosize=1;strokeColor=none;fillColor=none;" vertex="1" parent="1">
          <mxGeometry x="695" y="164" width="40" height="30" as="geometry" />
        </mxCell>
        <mxCell id="9TmVzUP1RuJLZxwf99D0-106" value="1" style="text;html=1;align=center;verticalAlign=middle;resizable=0;points=[];autosize=1;strokeColor=none;fillColor=none;" vertex="1" parent="1">
          <mxGeometry x="700" y="530" width="30" height="30" as="geometry" />
        </mxCell>
        <mxCell id="9TmVzUP1RuJLZxwf99D0-107" value="1" style="text;html=1;align=center;verticalAlign=middle;resizable=0;points=[];autosize=1;strokeColor=none;fillColor=none;" vertex="1" parent="1">
          <mxGeometry x="700" y="403" width="30" height="30" as="geometry" />
        </mxCell>
        <mxCell id="9TmVzUP1RuJLZxwf99D0-108" value="1..*" style="text;html=1;align=center;verticalAlign=middle;resizable=0;points=[];autosize=1;strokeColor=none;fillColor=none;" vertex="1" parent="1">
          <mxGeometry x="395" y="401" width="40" height="30" as="geometry" />
        </mxCell>
        <mxCell id="9TmVzUP1RuJLZxwf99D0-109" value="1" style="text;html=1;align=center;verticalAlign=middle;resizable=0;points=[];autosize=1;strokeColor=none;fillColor=none;" vertex="1" parent="1">
          <mxGeometry x="310" y="500" width="30" height="30" as="geometry" />
        </mxCell>
        <mxCell id="9TmVzUP1RuJLZxwf99D0-110" value="1" style="text;html=1;align=center;verticalAlign=middle;resizable=0;points=[];autosize=1;strokeColor=none;fillColor=none;" vertex="1" parent="1">
          <mxGeometry x="340" y="642" width="30" height="30" as="geometry" />
        </mxCell>
        <mxCell id="9TmVzUP1RuJLZxwf99D0-111" value="1...*" style="text;html=1;align=center;verticalAlign=middle;resizable=0;points=[];autosize=1;strokeColor=none;fillColor=none;" vertex="1" parent="1">
          <mxGeometry x="340" y="713" width="40" height="30" as="geometry" />
        </mxCell>
        <mxCell id="9TmVzUP1RuJLZxwf99D0-112" style="edgeStyle=orthogonalEdgeStyle;rounded=0;orthogonalLoop=1;jettySize=auto;html=1;entryX=0;entryY=0.5;entryDx=0;entryDy=0;endArrow=block;endFill=0;startArrow=none;startFill=0;endSize=12;" edge="1" parent="1" source="9TmVzUP1RuJLZxwf99D0-114" target="9TmVzUP1RuJLZxwf99D0-40">
          <mxGeometry relative="1" as="geometry">
            <Array as="points">
              <mxPoint x="350" y="-55" />
              <mxPoint x="350" y="-55" />
            </Array>
          </mxGeometry>
        </mxCell>
        <mxCell id="9TmVzUP1RuJLZxwf99D0-113" value="inherits-from" style="edgeLabel;html=1;align=center;verticalAlign=middle;resizable=0;points=[];" connectable="0" vertex="1" parent="9TmVzUP1RuJLZxwf99D0-112">
          <mxGeometry x="-0.3333" y="-1" relative="1" as="geometry">
            <mxPoint x="32" y="-1" as="offset" />
          </mxGeometry>
        </mxCell>
        <mxCell id="9TmVzUP1RuJLZxwf99D0-114" value="CustomerCareRep" style="swimlane;fontStyle=0;childLayout=stackLayout;horizontal=1;startSize=26;fillColor=none;horizontalStack=0;resizeParent=1;resizeParentMax=0;resizeLast=0;collapsible=1;marginBottom=0;whiteSpace=wrap;html=1;" vertex="1" parent="1">
          <mxGeometry x="140" y="-112" width="140" height="104" as="geometry">
            <mxRectangle x="350" y="350" width="90" height="30" as="alternateBounds" />
          </mxGeometry>
        </mxCell>
        <mxCell id="9TmVzUP1RuJLZxwf99D0-115" value="name" style="text;strokeColor=none;fillColor=none;align=left;verticalAlign=top;spacingLeft=4;spacingRight=4;overflow=hidden;rotatable=0;points=[[0,0.5],[1,0.5]];portConstraint=eastwest;whiteSpace=wrap;html=1;" vertex="1" parent="9TmVzUP1RuJLZxwf99D0-114">
          <mxGeometry y="26" width="140" height="26" as="geometry" />
        </mxCell>
        <mxCell id="3p_Fx420ezbqgMcpkuQv-4" value="title" style="text;strokeColor=none;fillColor=none;align=left;verticalAlign=top;spacingLeft=4;spacingRight=4;overflow=hidden;rotatable=0;points=[[0,0.5],[1,0.5]];portConstraint=eastwest;whiteSpace=wrap;html=1;" vertex="1" parent="9TmVzUP1RuJLZxwf99D0-114">
          <mxGeometry y="52" width="140" height="26" as="geometry" />
        </mxCell>
        <mxCell id="3p_Fx420ezbqgMcpkuQv-5" value="location" style="text;strokeColor=none;fillColor=none;align=left;verticalAlign=top;spacingLeft=4;spacingRight=4;overflow=hidden;rotatable=0;points=[[0,0.5],[1,0.5]];portConstraint=eastwest;whiteSpace=wrap;html=1;" vertex="1" parent="9TmVzUP1RuJLZxwf99D0-114">
          <mxGeometry y="78" width="140" height="26" as="geometry" />
        </mxCell>
        <mxCell id="9TmVzUP1RuJLZxwf99D0-116" value="1" style="text;html=1;align=center;verticalAlign=middle;resizable=0;points=[];autosize=1;strokeColor=none;fillColor=none;" vertex="1" parent="1">
          <mxGeometry x="210" y="-8" width="30" height="30" as="geometry" />
        </mxCell>
        <mxCell id="9TmVzUP1RuJLZxwf99D0-117" value="1" style="text;html=1;align=center;verticalAlign=middle;resizable=0;points=[];autosize=1;strokeColor=none;fillColor=none;" vertex="1" parent="1">
          <mxGeometry x="315" y="40" width="30" height="30" as="geometry" />
        </mxCell>
        <mxCell id="9TmVzUP1RuJLZxwf99D0-118" value="1" style="text;html=1;align=center;verticalAlign=middle;resizable=0;points=[];autosize=1;strokeColor=none;fillColor=none;" vertex="1" parent="1">
          <mxGeometry x="600" y="70" width="30" height="30" as="geometry" />
        </mxCell>
        <mxCell id="9TmVzUP1RuJLZxwf99D0-120" value="1" style="text;html=1;align=center;verticalAlign=middle;resizable=0;points=[];autosize=1;strokeColor=none;fillColor=none;" vertex="1" parent="1">
          <mxGeometry x="280" y="-90" width="30" height="30" as="geometry" />
        </mxCell>
        <mxCell id="9TmVzUP1RuJLZxwf99D0-121" value="1" style="text;html=1;align=center;verticalAlign=middle;resizable=0;points=[];autosize=1;strokeColor=none;fillColor=none;" vertex="1" parent="1">
          <mxGeometry x="450" y="-90" width="30" height="30" as="geometry" />
        </mxCell>
        <mxCell id="9TmVzUP1RuJLZxwf99D0-122" value="1" style="text;html=1;align=center;verticalAlign=middle;resizable=0;points=[];autosize=1;strokeColor=none;fillColor=none;" vertex="1" parent="1">
          <mxGeometry x="170" y="795" width="30" height="30" as="geometry" />
        </mxCell>
        <mxCell id="9TmVzUP1RuJLZxwf99D0-123" value="1" style="text;html=1;align=center;verticalAlign=middle;resizable=0;points=[];autosize=1;strokeColor=none;fillColor=none;" vertex="1" parent="1">
          <mxGeometry x="340" y="850" width="30" height="30" as="geometry" />
        </mxCell>
        <mxCell id="9TmVzUP1RuJLZxwf99D0-124" value="1" style="text;html=1;align=center;verticalAlign=middle;resizable=0;points=[];autosize=1;strokeColor=none;fillColor=none;" vertex="1" parent="1">
          <mxGeometry x="500" y="834" width="30" height="30" as="geometry" />
        </mxCell>
        <mxCell id="9TmVzUP1RuJLZxwf99D0-125" value="1" style="text;html=1;align=center;verticalAlign=middle;resizable=0;points=[];autosize=1;strokeColor=none;fillColor=none;" vertex="1" parent="1">
          <mxGeometry x="345" y="960" width="30" height="30" as="geometry" />
        </mxCell>
      </root>
    </mxGraphModel>
  </diagram>
</mxfile>
